<?xml version="1.0" encoding="UTF-8" standalone="no"?>
<!-- Created with Inkscape (http://www.inkscape.org/) -->

<svg
   xmlns:dc="http://purl.org/dc/elements/1.1/"
   xmlns:cc="http://creativecommons.org/ns#"
   xmlns:rdf="http://www.w3.org/1999/02/22-rdf-syntax-ns#"
   xmlns:svg="http://www.w3.org/2000/svg"
   xmlns="http://www.w3.org/2000/svg"
   xmlns:sodipodi="http://sodipodi.sourceforge.net/DTD/sodipodi-0.dtd"
   xmlns:inkscape="http://www.inkscape.org/namespaces/inkscape"
   width="38mm"
   height="34mm"
   viewBox="0 0 38 34"
   version="1.1"
   id="svg8"
   inkscape:version="0.92.5 (2060ec1f9f, 2020-04-08)"
   sodipodi:docname="logo.svg">
  <defs
     id="defs2" />
  <sodipodi:namedview
     id="base"
     pagecolor="#000000"
     bordercolor="#666666"
     borderopacity="1.0"
     inkscape:pageopacity="0"
     inkscape:pageshadow="2"
     inkscape:zoom="0.7"
     inkscape:cx="-89.83511"
     inkscape:cy="120.73469"
     inkscape:document-units="mm"
     inkscape:current-layer="layer1"
     showgrid="false"
     inkscape:window-width="1832"
     inkscape:window-height="1016"
     inkscape:window-x="88"
     inkscape:window-y="27"
     inkscape:window-maximized="1"
     inkscape:snap-text-baseline="true"
     inkscape:snap-midpoints="false" />
  <metadata
     id="metadata5">
    <rdf:RDF>
      <cc:Work
         rdf:about="">
        <dc:format>image/svg+xml</dc:format>
        <dc:type
           rdf:resource="http://purl.org/dc/dcmitype/StillImage" />
        <dc:title />
      </cc:Work>
    </rdf:RDF>
  </metadata>
  <g
     inkscape:label="Layer 1"
     inkscape:groupmode="layer"
     id="layer1"
     transform="translate(0,-263)">
    <text
       xml:space="preserve"
       style="font-style:normal;font-weight:normal;font-size:8.46666622px;line-height:1.25;font-family:sans-serif;text-align:start;letter-spacing:0px;word-spacing:0px;text-anchor:start;fill:#ffffff;fill-opacity:1;stroke:none;stroke-width:0.26458332"
       x="43.943081"
       y="276.58932"
       id="text3715"><tspan
         sodipodi:role="line"
         x="43.943081"
         y="276.58932"
         style="font-size:16.93333244px;line-height:1.25;text-align:start;text-anchor:start;fill:#ffffff;stroke-width:0.26458332"
         id="tspan3723"><tspan
   style="font-style:normal;font-variant:normal;font-weight:bold;font-stretch:normal;font-size:16.93333244px;font-family:sans-serif;-inkscape-font-specification:'sans-serif, Bold';font-variant-ligatures:normal;font-variant-caps:normal;font-variant-numeric:normal;font-feature-settings:normal;text-align:start;writing-mode:lr-tb;text-anchor:start;fill:#ff5555"
   id="tspan3737">ch</tspan><tspan
   style="fill:#ff5555"
   id="tspan5091">aos</tspan>Learning</tspan><tspan
         sodipodi:role="line"
         x="43.943081"
         y="292.13773"
         style="font-size:10.58333302px;line-height:1.25;text-align:start;text-anchor:start;fill:#ffffff;stroke-width:0.26458332"
         id="tspan3727">Hauptsache es läuft (-:</tspan></text>
    <path
       sodipodi:type="spiral"
       style="fill:#008000;fill-rule:evenodd;stroke:#000000;stroke-width:0.26458332"
       id="path3717"
       sodipodi:cx="19.276785"
       sodipodi:cy="56.607143"
       sodipodi:expansion="1.16"
       sodipodi:revolution="2.9895542"
       sodipodi:radius="9.9670324"
       sodipodi:argument="-20.230364"
       sodipodi:t0="0.07024464"
       d="m 19.733683,56.579083 c 0.380289,0.382493 0.0047,0.976719 -0.387216,1.162664 -0.809912,0.384268 -1.693534,-0.243823 -1.946857,-1.019317 -0.404433,-1.238087 0.524548,-2.473655 1.713586,-2.778952 1.680888,-0.431584 3.296701,0.825426 3.647572,2.449696 0.46189,2.138206 -1.141209,4.152827 -3.217929,4.546028 -2.608519,0.49389 -5.03616,-1.468969 -5.469852,-4.012467 -0.526942,-3.090379 1.806804,-5.942752 4.829397,-6.415831 3.582583,-0.560725 6.86975,2.153373 7.381528,5.665896 0.595064,4.084146 -2.507666,7.81498 -6.519818,8.365028 -4.594255,0.629852 -8.776724,-2.8689 -9.364781,-7.389474 -0.6650237,-5.112233 3.236444,-9.75359 8.273498,-10.379508 0.609919,-0.07579 1.226845,-0.09427 1.840235,-0.05577"
       transform="matrix(2.2560904,0,0,1.6620931,-22.282361,187.66808)" />
    <flowRoot
       xml:space="preserve"
       id="flowRoot3729"
       style="font-style:normal;font-weight:normal;font-size:32px;line-height:1.25;font-family:sans-serif;letter-spacing:0px;word-spacing:0px;fill:#000000;fill-opacity:1;stroke:none"
       transform="scale(0.26458333)"><flowRegion
         id="flowRegion3731"><rect
           id="rect3733"
           width="708.57141"
           height="40"
           x="478.57144"
           y="73.948257" /></flowRegion><flowPara
         id="flowPara3735" /></flowRoot>    <flowRoot
       xml:space="preserve"
       id="flowRoot5116"
       style="font-style:normal;font-weight:normal;font-size:32px;line-height:1.25;font-family:sans-serif;letter-spacing:0px;word-spacing:0px;fill:#000000;fill-opacity:1;stroke:none"
       transform="matrix(0.26458333,0,0,0.26458333,0,197)"><flowRegion
         id="flowRegion5118"><rect
           id="rect5120"
           width="67.14286"
           height="421.42856"
           x="411.42856"
           y="-407.76154" /></flowRegion><flowPara
         id="flowPara5122" /></flowRoot>    <flowRoot
       xml:space="preserve"
       id="flowRoot5124"
       style="font-style:normal;font-weight:normal;font-size:32px;line-height:1.25;font-family:sans-serif;letter-spacing:0px;word-spacing:0px;fill:#000000;fill-opacity:1;stroke:none"
       transform="matrix(0.26458333,0,0,0.26458333,0,197)"><flowRegion
         id="flowRegion5126"><rect
           id="rect5128"
           width="1005.7143"
           height="208.57143"
           x="-111.42857"
           y="-724.90436" /></flowRegion><flowPara
         id="flowPara5130" /></flowRoot>    <flowRoot
       xml:space="preserve"
       id="flowRoot5132"
       style="font-style:normal;font-weight:normal;font-size:32px;line-height:1.25;font-family:sans-serif;letter-spacing:0px;word-spacing:0px;fill:#000000;fill-opacity:1;stroke:none"
       transform="matrix(0.26458333,0,0,0.26458333,0,197)"><flowRegion
         id="flowRegion5134"><rect
           id="rect5136"
           width="78.571426"
           height="530"
           x="730"
           y="-633.47583" /></flowRegion><flowPara
         id="flowPara5138" /></flowRoot>    <path
       style="opacity:0.1;fill:#008000;fill-opacity:1;stroke-width:1.42857146"
       d="M 64.022033,119.05844 C 61.66489,118.74581 56.234213,117.50151 51.953861,116.29333 5.9625336,103.31171 -8.5221626,61.868256 22.803331,32.888156 37.309597,19.467999 55.833891,12.109359 79.147453,10.505869 L 91.415729,9.6620655 90.249167,19.352035 c -0.641608,5.329482 -1.340906,9.862329 -1.553991,10.072991 -0.213086,0.210662 -5.497129,1.092705 -11.742317,1.960097 -19.604876,2.72291 -2.025593,72.092057 -8.069747,85.098407 -6.905745,14.8604 -31.486629,-28.721623 -12.790801,-20.193519 5.096289,2.324673 9.279505,2.950586 19.358293,2.896482 13.915352,-0.0747 19.853599,-1.901932 27.735996,-8.534529 15.72368,-13.230606 8.69528,-34.060176 -12.706579,-37.65756 -4.891198,-0.82215 -4.96409,-0.937851 -4.564125,-7.244613 0.648311,-10.222761 1.329068,-11.40912 6.54679,-11.40912 12.467474,0 31.084504,9.673463 38.809184,20.16536 11.17014,15.17162 9.45265,31.262157 -4.85294,45.465469 -14.88763,14.78119 -39.075377,22.18012 -62.396897,19.08694 z"
       id="path837"
       inkscape:connector-curvature="0"
       transform="matrix(0.26458333,0,0,0.26458333,0,263)"
       sodipodi:nodetypes="cssscscssssssssssc" />
    <path
       style="opacity:0.1;fill:#008000;fill-opacity:1;stroke-width:1.42857146"
       d="M 65.450604,119.15789 C 50.732946,116.24421 45.707463,114.79831 38.208846,111.32009 18.867564,102.34865 7.2168823,86.95891 6.428657,69.340671 6.0794979,61.536344 9.499245,46.800648 11.840702,46.020163 c 0.806875,-0.268959 1.467045,-1.105433 1.467045,-1.858835 0,-3.163632 15.376946,-18.392085 18.571429,-18.392085 0.785714,0 1.428571,-0.509087 1.428571,-1.131305 0,-1.257104 13.653456,-7.679397 21.428572,-10.079541 7.20973,-2.225611 12.136561,-3.024886 24.863954,-4.033655 L 90.892799,9.6297004 89.957416,14.306614 c -0.51446,2.572303 -0.935383,7.404858 -0.935383,10.73901 v 6.062097 l -8.053289,0.185657 c -25.344728,0.584288 -47.754031,17.62344 -47.629623,36.215695 0.07212,10.77659 9.533043,22.843305 22.358512,28.516621 18.319618,8.103636 43.362946,2.628256 52.933257,-11.573137 8.25278,-12.246291 -0.65095,-28.325736 -17.187273,-31.03888 l -5.435558,-0.891821 0.971085,-8.019165 c 0.534097,-4.41054 1.29916,-8.580555 1.70014,-9.266703 1.342233,-2.296795 14.984416,0.406346 24.003576,4.756209 11.33342,5.466006 16.84812,10.127617 21.62616,18.280741 4.9266,8.406606 5.42455,21.354513 1.14158,29.684188 -2.96477,5.766008 -15.51033,19.240684 -17.91397,19.240684 -0.75446,0 -1.37174,0.5637 -1.37174,1.25266 0,1.93999 -13.5603,7.31338 -24.086521,9.54448 -8.997719,1.90713 -20.361712,2.40344 -26.627765,1.16294 z"
       id="path839"
       inkscape:connector-curvature="0"
       transform="matrix(0.26458333,0,0,0.26458333,0,263)" />
    <path
       style="opacity:0.1;fill:#008000;fill-opacity:1;stroke-width:1.42857146"
       d="m 65.789129,119.20301 c -0.299799,-0.2998 -2.456258,-0.75432 -4.792132,-1.01004 -2.335874,-0.25572 -5.02154,-0.94361 -5.968147,-1.52865 -0.946606,-0.58503 -2.31954,-0.69384 -3.050963,-0.2418 -0.731423,0.45205 -1.740128,0.15807 -2.241568,-0.65328 -0.50144,-0.81134 -1.465726,-1.13277 -2.142858,-0.71428 -0.677131,0.41849 -1.641417,0.0971 -2.142857,-0.71429 -0.50144,-0.81135 -1.510145,-1.10532 -2.241568,-0.65328 -0.731423,0.45205 -1.32986,0.10317 -1.32986,-0.77529 0,-0.87846 -0.556212,-1.25343 -1.236025,-0.83329 -2.827725,1.74763 -27.335404,-17.964247 -27.335404,-21.986259 0,-0.806391 -0.680796,-1.466165 -1.512881,-1.466165 -0.832085,0 -1.115574,-0.642858 -0.629976,-1.428572 0.485598,-0.785714 0.338912,-1.428571 -0.32597,-1.428571 -0.664881,0 -1.3134739,-1.388586 -1.4413171,-3.085747 C 9.2697597,80.986336 8.650814,79.218478 8.0221681,78.754924 5.419747,76.83594 5.4942387,55.769243 8.1034454,55.769243 c 0.6733483,0 0.8542386,-0.964286 0.4019783,-2.142857 -0.4522603,-1.178572 -0.092467,-2.142858 0.7995399,-2.142858 0.8920074,0 1.2104694,-0.411361 0.7076934,-0.914137 -0.5027751,-0.502775 1.051244,-3.395633 3.453376,-6.428571 2.402132,-3.032939 4.041516,-5.514434 3.643074,-5.514434 -1.32543,0 7.450829,-8.198062 9.700373,-9.061293 1.216904,-0.46697 2.212553,-1.51207 2.212553,-2.322443 0,-0.810374 0.964286,-1.473407 2.142857,-1.473407 1.178571,0 2.142857,-0.642857 2.142857,-1.428572 0,-0.785714 0.632616,-1.428571 1.405814,-1.428571 0.773198,0 5.273198,-1.873387 10,-4.163081 4.726802,-2.289695 8.594186,-3.941712 8.594186,-3.671151 0,0.270561 2.089286,-0.145009 4.642857,-0.923491 6.05769,-1.846747 9.608779,-2.388558 22.3512,-3.410259 L 90.86729,9.8969657 89.957079,17.475961 c -0.500616,4.168448 -0.915799,8.942827 -0.922629,10.609732 -0.01143,2.777503 -0.959604,3.085565 -11.348596,3.686975 -24.22615,1.40243 -44.460884,18.221238 -44.338765,36.853718 0.074,11.290998 12.026621,24.031391 26.837102,28.605884 10.920779,3.37308 18.683912,3.56288 28.347675,0.69305 C 112.47982,90.813543 119.66405,69.819174 102.22082,57.922277 99.282914,55.918523 94.405904,53.87935 91.383017,53.390781 l -5.496157,-0.888307 0.984077,-7.876288 c 1.419107,-11.358148 1.624573,-11.665646 6.802552,-10.180622 2.444764,0.70115 4.707321,1.01252 5.027907,0.691936 0.320584,-0.320586 3.357724,0.606556 6.749204,2.060314 3.39148,1.453759 6.54677,2.262763 7.01174,1.797789 0.46497,-0.464975 0.84541,-0.05747 0.84541,0.905568 0,0.963037 0.64285,1.35367 1.42857,0.868072 0.78571,-0.485599 1.42857,-0.310739 1.42857,0.388575 0,0.699316 1.70902,2.183683 3.79783,3.298596 4.26922,2.27872 11.91646,9.077306 11.91646,10.594027 0,0.545616 1.18631,2.69841 2.63624,4.783987 3.97055,5.711209 4.11261,20.038473 0.27724,27.961279 -4.53546,9.369027 -20.47988,23.493783 -29.34206,25.993383 -0.78571,0.22161 -4.96428,1.4299 -9.28571,2.68509 -7.140166,2.0739 -29.061379,4.04321 -30.375761,2.72883 z"
       id="path841"
       inkscape:connector-curvature="0"
       transform="matrix(0.26458333,0,0,0.26458333,0,263)" />
    <path
       style="opacity:0.1;fill:#008000;fill-opacity:1;stroke-width:1.42857146"
       d="m 62.844019,118.49724 c -2.057616,-1.03355 -17.703173,-4.43658 -18.997576,-4.13212 -0.513449,0.12077 -1.326846,-0.33055 -1.807549,-1.00294 -0.898717,-1.25709 -9.061118,-5.17922 -9.93267,-4.77277 -0.267981,0.12498 -1.372535,-0.94058 -2.454567,-2.3679 -1.082031,-1.42732 -1.987774,-2.15146 -2.012763,-1.60921 -0.02499,0.54225 -3.420433,-2.67203 -7.545433,-7.142859 -4.125,-4.470823 -7.821428,-8.450198 -8.214285,-8.843055 -0.392857,-0.392858 -0.923215,-1.678572 -1.178572,-2.857143 -0.255357,-1.178572 -1.0228144,-2.345105 -1.705461,-2.592297 -0.6826466,-0.247192 -0.8870824,-1.372192 -0.4543017,-2.5 0.4327806,-1.127808 0.1643844,-2.05056 -0.596436,-2.05056 -0.7608204,0 -1.0760852,-1.607143 -0.7005882,-3.571429 C 7.6193141,73.090671 7.3694537,71.482251 6.6885717,71.48069 6.0076896,71.479128 5.3157693,69.550557 5.150971,67.194976 4.9861727,64.839394 5.3861531,62.9121 6.0398164,62.9121 c 0.6536633,0 1.5753169,-2.419153 2.048119,-5.375896 0.4728023,-2.956743 2.7908066,-8.421028 5.1511206,-12.142857 2.360314,-3.721829 4.025207,-6.766961 3.699763,-6.766961 -0.325443,0 1.135142,-1.8126 3.245748,-4.028002 2.110607,-2.215401 4.240139,-3.983258 4.732293,-3.928571 0.492156,0.05468 2.788691,-1.571653 5.103413,-3.614087 2.314721,-2.042435 7.21562,-4.861915 10.890887,-6.265512 3.675266,-1.403596 6.682301,-3.107514 6.682301,-3.786483 0,-0.678968 0.482143,-1.15836 1.071429,-1.065315 0.589286,0.09304 1.553571,0.01268 2.142857,-0.178572 0.589286,-0.191259 1.714286,-0.508458 2.5,-0.704887 0.785714,-0.196429 1.589286,-0.483325 1.785714,-0.637547 0.196429,-0.154223 2.928572,-0.571023 6.071429,-0.926224 3.142857,-0.355201 6.678571,-0.994647 7.857143,-1.420992 1.178571,-0.426344 6.550443,-1.007991 11.937493,-1.292549 l 9.794635,-0.517378 -1.078642,8.111631 c -0.593255,4.461397 -1.03455,9.082456 -0.980658,10.269022 0.07446,1.639301 -1.84713,2.250051 -8.001705,2.543234 -16.816912,0.8011 -32.358622,8.31076 -41.129272,19.873413 C 30.506054,62.99882 31.895626,76.37543 43.346261,87.468336 54.687154,98.454927 72.706371,102.62499 88.531866,97.92532 112.47982,90.813543 119.66405,69.819174 102.22082,57.922277 99.282914,55.918523 94.468461,53.889354 91.522033,53.413011 86.550251,52.609234 86.16489,52.197097 86.16489,47.683633 c 0,-2.674816 0.945201,-7.125485 2.100447,-9.890377 1.879657,-4.498655 2.416967,-4.857679 5.111629,-3.41554 1.656151,0.886345 3.904648,1.268682 4.996661,0.849637 1.092013,-0.419045 2.392523,-0.103286 2.890013,0.701673 0.4975,0.804962 1.76226,1.13443 2.8106,0.732147 1.04833,-0.402283 2.11783,-0.09611 2.37665,0.68037 0.25883,0.776485 1.90751,1.520033 3.66373,1.652324 1.75622,0.132291 3.19313,0.853729 3.19313,1.603191 0,0.749463 0.375,0.98766 0.83333,0.529328 0.45833,-0.458333 1.97512,0.238095 3.37063,1.547618 1.39551,1.309524 4.91304,4.204454 7.81674,6.433177 2.90369,2.228723 6.69048,7.050152 8.41508,10.714286 1.72461,3.664134 3.45707,6.98349 3.84993,7.376347 0.39286,0.392857 0.71429,3.607143 0.71429,7.142857 0,3.535715 -0.32143,6.75 -0.71429,7.142857 -0.39286,0.392858 -2.27393,3.812882 -4.18016,7.600053 -1.90624,3.787172 -6.40624,9.498537 -10,12.691919 -6.71087,5.96321 -21.72829,13.99061 -26.176981,13.99262 -1.375,6.2e-4 -2.5,0.48327 -2.5,1.07255 0,1.17094 -0.849322,1.26362 -18.320872,1.99927 -6.540764,0.2754 -12.647907,0.12119 -13.571428,-0.3427 z"
       id="path843"
       inkscape:connector-curvature="0"
       transform="matrix(0.26458333,0,0,0.26458333,0,263)" />
  </g>
</svg>
